<svg data-v-fde0c5aa="" xmlns="http://www.w3.org/2000/svg" viewBox="0 0 300 300" class="iconAbove"><!----><defs data-v-fde0c5aa=""><!----></defs><rect data-v-fde0c5aa="" fill="transparent" x="0" y="0" width="300px" height="300px" class="logo-background-square"></rect><defs data-v-fde0c5aa=""><!----></defs><g data-v-fde0c5aa="" id="a18141aa-9f0b-47e5-8edf-1b8b0c3b26e5" fill="#000000" transform="matrix(4.564971751412429,0,0,4.564971751412429,25.946895593977256,180.98033924426062)"><path d="M6.33 8.11L6.33 8.11L6.33 8.11Q6.74 8.22 7.12 8.43L7.12 8.43L7.12 8.43Q7.49 8.63 7.78 8.93L7.78 8.93L7.78 8.93Q8.07 9.22 8.25 9.60L8.25 9.60L8.25 9.60Q8.42 9.98 8.42 10.45L8.42 10.45L8.42 10.45Q8.42 11.00 8.15 11.57L8.15 11.57L8.15 11.57Q7.88 12.13 7.36 12.60L7.36 12.60L7.36 12.60Q6.83 13.06 6.05 13.35L6.05 13.35L6.05 13.35Q5.27 13.64 4.25 13.64L4.25 13.64L1.41 13.64L1.41 3.63L4.53 3.63L4.53 3.63Q5.39 3.63 6.04 3.81L6.04 3.81L6.04 3.81Q6.68 4.00 7.11 4.30L7.11 4.30L7.11 4.30Q7.54 4.60 7.76 5.00L7.76 5.00L7.76 5.00Q7.97 5.39 7.97 5.81L7.97 5.81L7.97 5.81Q7.97 6.17 7.83 6.49L7.83 6.49L7.83 6.49Q7.70 6.82 7.47 7.11L7.47 7.11L7.47 7.11Q7.25 7.40 6.95 7.65L6.95 7.65L6.95 7.65Q6.65 7.90 6.33 8.11ZM3.10 9.02L3.10 12.44L4.42 12.44L4.42 12.44Q5.02 12.44 5.45 12.28L5.45 12.28L5.45 12.28Q5.88 12.12 6.15 11.86L6.15 11.86L6.15 11.86Q6.41 11.61 6.53 11.28L6.53 11.28L6.53 11.28Q6.65 10.96 6.65 10.62L6.65 10.62L6.65 10.62Q6.65 10.21 6.49 9.91L6.49 9.91L6.49 9.91Q6.32 9.60 6.02 9.41L6.02 9.41L6.02 9.41Q5.72 9.21 5.30 9.12L5.30 9.12L5.30 9.12Q4.89 9.02 4.38 9.02L4.38 9.02L3.10 9.02ZM3.10 7.85L5.33 7.85L5.33 7.85Q5.76 7.55 6.03 7.15L6.03 7.15L6.03 7.15Q6.29 6.75 6.29 6.25L6.29 6.25L6.29 6.25Q6.29 5.60 5.77 5.22L5.77 5.22L5.77 5.22Q5.26 4.83 4.31 4.83L4.31 4.83L3.10 4.83L3.10 7.85ZM13.41 13.78L13.41 13.78L13.41 13.78Q12.56 13.78 11.90 13.49L11.90 13.49L11.90 13.49Q11.25 13.21 10.81 12.72L10.81 12.72L10.81 12.72Q10.36 12.23 10.13 11.59L10.13 11.59L10.13 11.59Q9.91 10.94 9.91 10.23L9.91 10.23L9.91 10.23Q9.91 9.40 10.20 8.68L10.20 8.68L10.20 8.68Q10.49 7.96 11.02 7.42L11.02 7.42L11.02 7.42Q11.55 6.88 12.28 6.57L12.28 6.57L12.28 6.57Q13.02 6.26 13.89 6.26L13.89 6.26L13.89 6.26Q14.75 6.26 15.40 6.55L15.40 6.55L15.40 6.55Q16.06 6.84 16.50 7.33L16.50 7.33L16.50 7.33Q16.95 7.82 17.18 8.47L17.18 8.47L17.18 8.47Q17.40 9.11 17.40 9.83L17.40 9.83L17.40 9.83Q17.40 10.66 17.11 11.39L17.11 11.39L17.11 11.39Q16.81 12.11 16.28 12.64L16.28 12.64L16.28 12.64Q15.74 13.17 15.01 13.48L15.01 13.48L15.01 13.48Q14.28 13.78 13.41 13.78ZM13.70 12.60L13.70 12.60L13.70 12.60Q14.14 12.60 14.50 12.42L14.50 12.42L14.50 12.42Q14.86 12.24 15.12 11.91L15.12 11.91L15.12 11.91Q15.38 11.59 15.52 11.14L15.52 11.14L15.52 11.14Q15.67 10.68 15.67 10.14L15.67 10.14L15.67 10.14Q15.67 9.60 15.53 9.12L15.53 9.12L15.53 9.12Q15.39 8.63 15.12 8.26L15.12 8.26L15.12 8.26Q14.85 7.89 14.47 7.67L14.47 7.67L14.47 7.67Q14.09 7.44 13.60 7.44L13.60 7.44L13.60 7.44Q13.16 7.44 12.80 7.63L12.80 7.63L12.80 7.63Q12.43 7.81 12.18 8.14L12.18 8.14L12.18 8.14Q11.92 8.47 11.78 8.92L11.78 8.92L11.78 8.92Q11.63 9.38 11.63 9.92L11.63 9.92L11.63 9.92Q11.63 10.46 11.77 10.94L11.77 10.94L11.77 10.94Q11.92 11.43 12.18 11.80L12.18 11.80L12.18 11.80Q12.45 12.17 12.83 12.38L12.83 12.38L12.83 12.38Q13.21 12.60 13.70 12.60ZM22.31 13.78L22.31 13.78L22.31 13.78Q21.46 13.78 20.81 13.49L20.81 13.49L20.81 13.49Q20.15 13.21 19.71 12.72L19.71 12.72L19.71 12.72Q19.26 12.23 19.03 11.59L19.03 11.59L19.03 11.59Q18.81 10.94 18.81 10.23L18.81 10.23L18.81 10.23Q18.81 9.40 19.10 8.68L19.10 8.68L19.10 8.68Q19.39 7.96 19.92 7.42L19.92 7.42L19.92 7.42Q20.45 6.88 21.18 6.57L21.18 6.57L21.18 6.57Q21.92 6.26 22.79 6.26L22.79 6.26L22.79 6.26Q23.65 6.26 24.30 6.55L24.30 6.55L24.30 6.55Q24.96 6.84 25.40 7.33L25.40 7.33L25.40 7.33Q25.85 7.82 26.08 8.47L26.08 8.47L26.08 8.47Q26.30 9.11 26.30 9.83L26.30 9.83L26.30 9.83Q26.30 10.66 26.01 11.39L26.01 11.39L26.01 11.39Q25.71 12.11 25.18 12.64L25.18 12.64L25.18 12.64Q24.64 13.17 23.91 13.48L23.91 13.48L23.91 13.48Q23.18 13.78 22.31 13.78ZM22.60 12.60L22.60 12.60L22.60 12.60Q23.04 12.60 23.40 12.42L23.40 12.42L23.40 12.42Q23.76 12.24 24.02 11.91L24.02 11.91L24.02 11.91Q24.28 11.59 24.42 11.14L24.42 11.14L24.42 11.14Q24.57 10.68 24.57 10.14L24.57 10.14L24.57 10.14Q24.57 9.60 24.43 9.12L24.43 9.12L24.43 9.12Q24.29 8.63 24.02 8.26L24.02 8.26L24.02 8.26Q23.75 7.89 23.37 7.67L23.37 7.67L23.37 7.67Q22.99 7.44 22.50 7.44L22.50 7.44L22.50 7.44Q22.06 7.44 21.70 7.63L21.70 7.63L21.70 7.63Q21.33 7.81 21.08 8.14L21.08 8.14L21.08 8.14Q20.82 8.47 20.68 8.92L20.68 8.92L20.68 8.92Q20.54 9.38 20.54 9.92L20.54 9.92L20.54 9.92Q20.54 10.46 20.68 10.94L20.68 10.94L20.68 10.94Q20.82 11.43 21.08 11.80L21.08 11.80L21.08 11.80Q21.35 12.17 21.73 12.38L21.73 12.38L21.73 12.38Q22.11 12.60 22.60 12.60ZM28.15 13.64L28.15 2.69L29.80 2.69L29.80 13.64L28.15 13.64ZM34.91 13.64L32.91 13.64L30.21 9.82L33.02 6.42L34.70 6.42L31.86 9.62L34.91 13.64ZM36.37 13.64L36.37 6.40L38.04 6.40L38.04 13.64L36.37 13.64ZM37.20 4.97L37.20 4.97L37.20 4.97Q36.98 4.97 36.80 4.90L36.80 4.90L36.80 4.90Q36.62 4.83 36.49 4.70L36.49 4.70L36.49 4.70Q36.35 4.58 36.28 4.41L36.28 4.41L36.28 4.41Q36.21 4.24 36.21 4.04L36.21 4.04L36.21 4.04Q36.21 3.83 36.29 3.66L36.29 3.66L36.29 3.66Q36.37 3.49 36.51 3.35L36.51 3.35L36.51 3.35Q36.65 3.22 36.84 3.14L36.84 3.14L36.84 3.14Q37.02 3.07 37.24 3.07L37.24 3.07L37.24 3.07Q37.45 3.07 37.63 3.14L37.63 3.14L37.63 3.14Q37.81 3.22 37.94 3.35L37.94 3.35L37.94 3.35Q38.07 3.47 38.14 3.65L38.14 3.65L38.14 3.65Q38.22 3.82 38.22 4.02L38.22 4.02L38.22 4.02Q38.22 4.22 38.14 4.40L38.14 4.40L38.14 4.40Q38.06 4.57 37.92 4.70L37.92 4.70L37.92 4.70Q37.78 4.83 37.60 4.90L37.60 4.90L37.60 4.90Q37.41 4.97 37.20 4.97ZM40.95 13.64L40.95 7.58L39.49 7.58L39.61 6.75L40.95 6.40L40.95 6.08L40.95 6.08Q40.95 5.36 41.17 4.72L41.17 4.72L41.17 4.72Q41.39 4.08 41.81 3.60L41.81 3.60L41.81 3.60Q42.22 3.12 42.83 2.84L42.83 2.84L42.83 2.84Q43.44 2.56 44.21 2.56L44.21 2.56L44.21 2.56Q44.52 2.56 44.85 2.60L44.85 2.60L44.85 2.60Q45.18 2.65 45.49 2.74L45.49 2.74L45.21 3.92L45.07 3.99L45.07 3.99Q44.86 3.88 44.61 3.81L44.61 3.81L44.61 3.81Q44.36 3.74 44.08 3.74L44.08 3.74L44.08 3.74Q43.69 3.74 43.41 3.90L43.41 3.90L43.41 3.90Q43.13 4.05 42.95 4.33L42.95 4.33L42.95 4.33Q42.77 4.61 42.69 4.99L42.69 4.99L42.69 4.99Q42.61 5.37 42.61 5.81L42.61 5.81L42.61 6.40L45.01 6.40L44.72 7.58L42.61 7.58L42.61 13.64L40.95 13.64ZM48.55 13.64L45.96 6.40L47.79 6.40L49.20 11.04L49.51 12.40L49.65 12.40L49.96 11.04L51.38 6.40L52.94 6.40L49.05 17.31L47.52 17.31L49.05 13.64L48.55 13.64Z"></path></g><defs data-v-fde0c5aa=""><linearGradient data-v-fde0c5aa="" gradientTransform="rotate(25)" id="63b3560b-cca5-42e4-9c01-2cf866c98c9e" x1="0%" y1="0%" x2="100%" y2="0%"><stop data-v-fde0c5aa="" offset="0%" stop-color="#395ECA" stop-opacity="1"></stop><stop data-v-fde0c5aa="" offset="100%" stop-color="#848BD8" stop-opacity="1"></stop></linearGradient></defs><g data-v-fde0c5aa="" id="82db8162-b0c5-43a3-b197-c9d7aa9adaf1" stroke="none" fill="url(#63b3560b-cca5-42e4-9c01-2cf866c98c9e)" transform="matrix(2.882851948270987,0,0,2.882851948270987,9.566187771627984,40)"><path d="M35.03 35.148c-7.732-3.146-11.661-3.487-15.821-3.848-4.101-.354-8.347-.729-16.382-3.95-.597.901-1.09 2.651-1.487 4.772 8.261 2.153 12.443 1.988 16.477 1.821 4.081-.168 8.298-.341 16.548 1.847 2.792.741 4.966 1.47 6.695 2.176-1.536-.849-3.491-1.785-6.03-2.818zM34.048 37.982c-8.068-2.141-12.008-1.98-16.182-1.808-4.11.17-8.367.338-16.739-1.835a85.795 85.795 0 0 0-.661 5.174c8.167.969 12.216.268 16.122-.416 4.021-.703 8.179-1.43 16.647-.348 3.312.424 5.807.94 7.732 1.5-1.709-.719-3.944-1.478-6.919-2.267zM16.801 41.31c-3.991.697-8.125 1.412-16.451.43-.17 1.895-.287 3.646-.35 4.945 8.365-.059 12.312-1.281 16.133-2.465 3.901-1.208 7.934-2.457 16.469-2.457 2.886 0 5.174.146 7.025.387-1.702-.43-3.83-.831-6.547-1.178-8.28-1.06-12.166-.381-16.279.338zM79.611 33.969c4.043.165 8.232.333 16.533-1.835-.41-2.307-.904-4.096-1.479-4.783-8.078 3.246-12.334 3.619-16.447 3.975-4.16.361-8.09.7-15.822 3.849-2.539 1.034-4.496 1.97-6.031 2.821 1.729-.707 3.904-1.438 6.699-2.178 8.248-2.19 12.467-2.016 16.547-1.849z"></path><path d="M94.041 25.278L85.287 0c-6.336 2.515-9.715 2.807-12.984 3.09-3.342.289-6.498.562-12.707 3.089-8.611 3.506-9.078 5.696-9.328 6.873-.121.565-.264 1.197-1.038 1.609v28.725c.004-.006.012-.012.017-.02.036-.052.068-.115.1-.184.065-.158.114-.348.174-.625.39-1.831 1.042-4.896 12.414-9.523 7.904-3.22 12.111-3.583 16.18-3.936 3.992-.345 8.119-.701 15.926-3.82z"></path><path d="M80.837 39.123c3.91.684 7.961 1.383 16.141.414a92.14 92.14 0 0 0-.633-5.184c-8.398 2.184-12.664 2.017-16.785 1.846-4.174-.171-8.113-.332-16.182 1.809-2.975.79-5.209 1.549-6.922 2.27 1.926-.56 4.422-1.076 7.734-1.5 8.466-1.085 12.628-.358 16.647.345zM81.294 44.247c3.82 1.183 7.768 2.406 16.133 2.466-.072-1.51-.188-3.213-.336-4.948-8.334.985-12.473.269-16.465-.429-4.113-.719-7.998-1.397-16.279-.338-2.715.348-4.844.75-6.545 1.178 1.85-.238 4.137-.387 7.023-.387 8.536 0 12.569 1.25 16.469 2.458zM47.907 42.533c.033.154.061.279.091.394V14.662c-.774-.412-.917-1.044-1.037-1.609-.251-1.177-.717-3.367-9.329-6.873-6.209-2.527-9.365-2.8-12.706-3.089-3.27-.283-6.647-.576-12.981-3.089L3.382 25.25c7.81 3.121 11.938 3.479 15.933 3.824 4.068.353 8.274.717 16.179 3.934 11.372 4.628 12.024 7.694 12.413 9.525z"></path></g><!----></svg>